<svg xmlns="http://www.w3.org/2000/svg" xmlns:xlink="http://www.w3.org/1999/xlink" id="Layer_1" width="512" height="512" x="0" y="0" enable-background="new 0 0 100 100" version="1.1" viewBox="0 0 100 100" xml:space="preserve"><g><circle cx="50" cy="50" r="48" fill="#EFC84A"/><path d="M70.960022,22.4991226H29.039978c-3.4499512,0-6.25,2.7900391-6.25,6.2199707v48.7800293 l19.9546509,19.954834C45.1109009,97.8125992,47.5335693,97.9999771,50,97.9999771c26.5097046,0,48-21.4903564,48-48 c0-1.059082-0.0464478-2.1068115-0.1140137-3.1488037L75.6199951,24.5792007 C74.4799805,23.2991714,72.8099976,22.4991226,70.960022,22.4991226z" opacity=".1"/><g><path fill="#FFF" d="M29.0392799,22.4999981c-3.4517136,0-6.2498741,2.7865944-6.2498741,6.224041V77.5l3.0360584-3.0374985 l2.9876003,2.9890671l2.9877739-2.9890671l2.9876862,2.9890671l2.98769-2.9890671l2.9876022,2.9890671l2.9877739-2.9890671 l2.9877701,2.9890671l2.9876022-2.9890671l2.9876022,2.9890671l2.9877739-2.9890671l2.9877739,2.9890671l2.9876022-2.9890671 L64.713768,77.5V41.9586678l6.2484131-19.4586697H29.0392799z"/><path fill="#E1E6E9" d="M70.9621811,22.4999981L70.9621811,22.4999981c-3.4508514,0-6.2484131,2.7859097-6.2484131,6.2225437 v13.2361259h12.4968262V28.7225418C77.2105942,25.2859077,74.4130402,22.4999981,70.9621811,22.4999981z"/><rect width="12.253" height="2.347" x="26.412" y="29.154" fill="#27A2DB"/><rect width="17.51" height="2.347" x="26.412" y="36.192" fill="#EBF0F3"/><rect width="17.51" height="2.347" x="26.412" y="43.23" fill="#EBF0F3"/><rect width="22.377" height="2.347" x="26.412" y="50.269" fill="#EBF0F3"/><rect width="13.927" height="2.347" x="26.412" y="57.307" fill="#EBF0F3"/><rect width="17.51" height="2.347" x="26.412" y="64.346" fill="#EBF0F3"/><rect width="5.163" height="2.347" x="55.766" y="43.23" fill="#EBF0F3"/><rect width="5.163" height="2.347" x="55.766" y="50.269" fill="#EBF0F3"/><rect width="5.163" height="2.347" x="55.766" y="57.307" fill="#EBF0F3"/><rect width="5.163" height="2.347" x="55.766" y="64.346" fill="#EBF0F3"/></g></g></svg>